<?xml version="1.0" standalone="no"?>
<!DOCTYPE svg PUBLIC "-//W3C//DTD SVG 20010904//EN"
 "http://www.w3.org/TR/2001/REC-SVG-20010904/DTD/svg10.dtd">
<svg version="1.0" xmlns="http://www.w3.org/2000/svg"
 width="1024.000000pt" height="1024.000000pt" viewBox="0 0 1024.000000 1024.000000"
 preserveAspectRatio="xMidYMid meet">

<g transform="translate(0.000000,1024.000000) scale(0.100000,-0.100000)"
fill="#000000" stroke="none">
<path d="M4695 8665 c-268 -50 -589 -176 -785 -308 -297 -200 -419 -319 -623
-602 -97 -135 -241 -406 -282 -530 -80 -245 -106 -399 -112 -657 -8 -321 24
-545 114 -798 66 -188 154 -366 264 -537 45 -70 105 -166 132 -213 27 -47 82
-121 121 -165 39 -44 109 -128 155 -188 46 -59 109 -135 140 -170 32 -34 151
-179 267 -321 312 -386 334 -415 392 -494 l52 -72 0 -194 0 -193 29 -39 c16
-21 57 -66 91 -99 34 -33 107 -111 163 -174 106 -120 145 -151 190 -151 47 0
82 26 167 122 45 51 138 148 208 215 l127 122 3 139 3 139 -43 34 c-45 35
-101 90 -96 94 2 2 36 10 77 18 97 21 92 16 321 316 36 47 97 125 135 172 39
48 91 115 117 150 26 35 91 114 143 174 52 61 141 169 197 240 56 72 117 148
135 169 18 21 38 55 44 75 15 49 109 203 164 271 24 30 57 78 71 105 15 28 37
64 50 81 46 60 151 282 191 404 86 260 117 456 117 745 0 283 -42 503 -144
760 -74 186 -132 293 -254 465 -206 292 -393 469 -658 621 -268 155 -504 240
-762 274 -138 19 -520 18 -621 0z m625 -169 c164 -30 362 -100 542 -191 252
-128 353 -200 510 -364 195 -205 357 -451 449 -685 96 -242 128 -420 136 -752
l6 -231 -129 -7 c-109 -6 -1014 10 -1022 18 -1 2 13 23 31 47 54 71 135 209
161 275 43 105 66 246 66 401 0 76 -4 154 -10 172 -5 19 -9 35 -7 36 1 1 46
-2 100 -7 118 -12 137 -8 160 31 24 41 11 60 -81 122 -79 55 -152 89 -185 89
l-22 0 0 347 0 348 -118 5 c-65 3 -184 3 -265 0 l-147 -5 -8 -45 c-16 -84 -17
-90 -25 -90 -4 0 -82 64 -172 142 -192 165 -258 218 -271 218 -5 0 -32 -21
-61 -48 -29 -26 -69 -58 -88 -72 -52 -37 -303 -261 -480 -430 -202 -192 -353
-314 -473 -384 -167 -96 -219 -153 -191 -208 13 -25 20 -28 67 -28 29 0 79 7
110 15 32 8 61 15 66 15 4 0 1 -46 -6 -102 -18 -129 -11 -294 17 -408 35 -144
134 -329 234 -439 23 -25 33 -42 23 -38 -10 4 -250 11 -535 17 -284 5 -545 13
-579 16 l-63 6 0 131 c0 257 32 494 97 717 54 189 185 449 288 571 16 20 55
67 85 105 159 201 416 402 680 534 152 76 380 148 555 174 62 9 482 -4 555
-18z m-201 -423 c172 -157 703 -687 712 -711 5 -13 21 -90 35 -170 51 -287 20
-485 -103 -672 -76 -115 -161 -202 -264 -270 -101 -66 -190 -102 -332 -131
-113 -23 -166 -21 -325 11 -184 38 -318 108 -450 234 -178 170 -262 362 -262
595 0 95 41 360 64 415 8 19 83 103 167 187 163 163 530 500 598 550 23 16 41
34 41 39 0 23 28 5 119 -77z m642 -83 l89 0 0 -180 c0 -99 -4 -180 -9 -180
-13 0 -192 202 -202 228 -11 28 -12 126 -2 136 4 3 13 4 21 1 7 -3 54 -5 103
-5z m-1459 -1914 c171 -1 178 -2 200 -24 20 -20 23 -33 23 -104 l0 -81 -685 2
c-376 1 -686 4 -689 6 -4 5 -51 195 -51 208 0 5 231 5 513 1 281 -4 592 -8
689 -8z m2610 -4 c3 -4 -8 -53 -25 -110 l-32 -103 -325 3 c-179 2 -479 3 -668
3 l-342 0 0 97 0 97 45 7 c25 3 58 4 73 1 15 -3 95 1 177 8 111 10 272 13 620
9 259 -3 473 -8 477 -12z m-1580 -522 c2 -234 1 -440 -2 -459 l-5 -34 -117 -1
c-112 -1 -117 0 -122 20 -11 42 -133 39 -152 -4 -4 -9 -8 -471 -10 -1025 -1
-555 -4 -1011 -7 -1013 -3 -3 -20 16 -38 43 -18 26 -66 85 -106 130 l-72 81
-2 1337 c0 735 1 1339 4 1341 3 3 54 -5 113 -17 146 -30 294 -28 419 4 50 13
91 24 92 23 1 -1 3 -192 5 -426z m-940 144 l134 -7 0 -93 -1 -94 -611 0 -611
0 -46 92 c-34 68 -43 94 -34 100 15 9 978 11 1169 2z m2397 -9 c3 -3 -16 -47
-43 -98 l-48 -92 -586 4 c-323 1 -588 4 -590 6 -2 2 -4 47 -5 101 l-2 97 634
-6 c349 -4 637 -9 640 -12z m-2261 -450 l-2 -95 -31 -4 c-16 -3 -228 -9 -470
-14 l-440 -9 -20 22 c-86 94 -145 168 -145 180 0 13 73 15 555 15 l555 0 -2
-95z m2058 82 c4 -4 -1 -15 -12 -25 -11 -10 -44 -51 -74 -91 -30 -39 -64 -74
-75 -77 -11 -2 -220 -3 -465 -2 l-445 3 -3 104 -3 103 535 -3 c294 -2 538 -7
542 -12z m-2056 -513 l0 -157 -69 6 c-38 3 -111 20 -163 37 -89 30 -347 157
-453 224 l-50 31 55 6 c30 3 196 6 368 7 l312 2 0 -156z m1553 149 c70 -3 127
-9 127 -14 0 -12 -137 -99 -245 -155 -143 -75 -420 -162 -442 -140 -4 4 -9 76
-11 161 l-4 155 223 0 c123 0 281 -3 352 -7z m-846 -167 c50 -47 73 -76 73
-92 0 -16 -28 -51 -92 -114 -104 -103 -128 -120 -128 -93 0 10 -1 111 -3 224
l-2 207 40 -32 c22 -17 72 -62 112 -100z m872 -144 c-312 -357 -582 -710 -633
-826 -14 -31 -31 -56 -39 -56 -22 0 -91 42 -132 79 l-36 32 73 67 c163 149
161 146 156 201 -4 43 -13 59 -80 138 -42 49 -83 95 -92 102 -23 19 -21 25 24
50 27 15 69 25 132 32 51 5 145 23 208 40 120 33 350 125 409 165 19 13 37 22
39 19 2 -2 -11 -21 -29 -43z m-2038 -41 c126 -56 319 -119 415 -135 l41 -7 7
-266 c4 -157 3 -270 -3 -276 -5 -5 -19 5 -35 25 -14 18 -61 78 -103 134 -183
236 -396 497 -427 523 -27 22 -62 76 -45 69 7 -4 75 -34 150 -67z m1103 -325
c109 -85 119 -98 112 -134 -8 -34 -168 -192 -195 -192 -4 0 -7 88 -7 195 0
107 2 195 4 195 2 0 41 -29 86 -64z m-16 -523 l32 -24 -35 -41 c-60 -70 -50
-89 107 -214 l68 -55 0 -72 0 -72 -121 -123 c-67 -67 -124 -120 -127 -118 -2
3 -1 174 3 380 8 416 3 391 73 339z"/>
<path d="M6456 6935 c-40 -40 -25 -89 37 -119 46 -21 63 -20 103 5 37 22 53
62 37 88 -22 35 -149 53 -177 26z"/>
<path d="M6466 6719 c-31 -25 -33 -49 -5 -75 16 -14 40 -20 100 -23 91 -4 109
5 109 55 0 28 -6 36 -32 50 -26 13 -36 14 -51 4 -14 -8 -22 -9 -30 -1 -18 18
-62 13 -91 -10z"/>
<path d="M4865 7417 c-83 -32 -132 -65 -190 -129 -119 -130 -161 -284 -120
-443 23 -89 61 -159 120 -224 129 -139 332 -178 521 -100 64 26 91 45 141 97
74 75 139 197 153 287 30 188 -91 405 -278 497 -61 31 -75 33 -177 35 -94 2
-119 0 -170 -20z m266 -163 c52 -22 142 -128 165 -197 64 -193 -76 -400 -271
-401 -110 0 -210 61 -262 161 -97 184 -42 366 132 433 64 24 179 26 236 4z"/>
<path d="M4848 7041 l4 -39 64 -4 64 -3 0 43 0 42 -68 0 -68 0 4 -39z"/>
<path d="M5040 7031 l0 -48 67 -6 c38 -3 71 -3 75 0 5 2 8 26 8 54 l0 49 -75
0 -75 0 0 -49z"/>
<path d="M4892 6943 l-53 -4 3 -57 3 -57 73 -3 73 -3 -3 63 c-3 71 1 68 -96
61z"/>
<path d="M5030 6896 l0 -53 38 -7 c20 -3 58 -6 85 -6 l47 0 0 38 c0 80 -3 82
-91 82 l-79 0 0 -54z"/>
<path d="M4962 2323 c-49 -24 -82 -68 -82 -110 0 -69 71 -143 138 -143 54 0
132 84 132 142 0 55 -75 128 -130 128 -14 0 -40 -8 -58 -17z"/>
</g>
</svg>
